<?xml version="1.0" encoding="UTF-8"?>
<svg id="_レイヤー_1" data-name=" レイヤー 1" xmlns="http://www.w3.org/2000/svg" version="1.1" viewBox="0 0 1017.7 335.9">
  <defs>
    <style>
      .cls-1 {
        font-family: Apple-Chancery, 'Apple Chancery';
        font-size: 204.1px;
      }

      .cls-1, .cls-2 {
        fill: #000;
      }

      .cls-1, .cls-3 {
        isolation: isolate;
      }

      .cls-2, .cls-4 {
        stroke-width: 0px;
      }

      .cls-4 {
        fill: #fff;
      }
    </style>
  </defs>
  <g id="b">
    <g id="c">
      <g>
        <path class="cls-2" d="M77,275.6h104.1c7.5,0,13.6,6.1,13.6,13.6v28.8c0,7.5-6.1,13.6-13.6,13.6H13.6c-7.5,0-13.6-6.1-13.6-13.6V17.9C0,10.4,6.1,4.3,13.6,4.3h36.2c7.5,0,13.6,6.1,13.6,13.6v244.1c0,7.5,6.1,13.6,13.6,13.6h0Z"/>
        <path class="cls-2" d="M338.3,335.9c-70.2,0-119.6-44.6-119.6-144.7v-46.5C218.8,43.7,268.1,0,338.3,0s120,43.7,120,144.7v46.5c0,100.1-49.4,144.7-120,144.7h0ZM282.2,191.2c0,62.6,19.5,88.7,56.2,88.7s56.6-26.1,56.6-88.7v-46.5c0-62.6-19.9-88.7-56.6-88.7s-56.2,26.1-56.2,88.7v46.5h0Z"/>
        <path class="cls-2" d="M721.9,161.3c7.5,0,13.6,6.1,13.6,13.6v16.3c0,100.1-44.4,144.7-115,144.7s-119.6-44.6-119.6-144.7v-41.8C500.9,43.7,550.3,0,620.5,0s98.1,32.5,111.5,89.1c2,8.5-4.5,16.7-13.2,16.7h-33.5c-6,0-11.4-4-13.1-9.8-7.1-24.4-23.5-40-51.6-40s-56.2,26.1-56.2,88.7v46.5c0,62.6,19.5,88.7,56.2,88.7s45.5-16.9,51.5-46.2c1.7-8.5-4.7-16.4-13.3-16.4h-23.2c-7.5,0-13.6-6.1-13.6-13.6v-28.8c0-7.5,6.1-13.6,13.6-13.6h86.5-.2Z"/>
        <path class="cls-2" d="M897.7,335.9c-70.2,0-119.6-44.6-119.6-144.7v-46.5C778.1,43.7,827.5,0,897.7,0s120,43.7,120,144.7v46.5c0,100.1-49.4,144.7-120,144.7h0ZM841.5,191.2c0,62.6,19.5,88.7,56.2,88.7s56.6-26.1,56.6-88.7v-46.5c0-62.6-19.9-88.7-56.6-88.7s-56.2,26.1-56.2,88.7v46.5h0Z"/>
      </g>
    </g>
  </g>
  <rect class="cls-4" y="0" width="1017.7" height="335.9"/>
  <g class="cls-3">
    <g class="cls-3">
      <text class="cls-1" transform="translate(-5 235.1) scale(1 1)"><tspan x="0" y="0">AraiTomoki</tspan></text>
    </g>
  </g>
</svg>