<?xml version="1.0" encoding="UTF-8"?>
<svg id="_10" data-name="10" xmlns="http://www.w3.org/2000/svg" xmlns:xlink="http://www.w3.org/1999/xlink" version="1.1" viewBox="0 0 512 512">
  <defs>
    <style>
      .cls-1 {
        fill: #fff;
        stroke-width: 0px;
      }
    </style>
  </defs>
  <g>
    <path class="cls-1" d="M363,0h-214C69.1,0,4.3,64.8,4.3,144.7v222.6c0,79.9,64.8,144.7,144.7,144.7h214c79.9,0,144.7-64.8,144.7-144.7v-222.6c0-79.9-64.8-144.7-144.7-144.7ZM55.7,144.7c0-51.5,41.9-93.3,93.3-93.3h214c51.5,0,93.3,41.9,93.3,93.3v222.6c0,51.5-41.9,93.3-93.3,93.3h-214c-51.5,0-93.3-41.9-93.3-93.3v-222.6Z"/>
    <path class="cls-1" d="M256,387.9c72.7,0,131.9-59.1,131.9-131.9s-59.1-131.9-131.9-131.9-131.9,59.2-131.9,131.9,59.1,131.9,131.9,131.9ZM256,165.2c50,0,90.8,40.7,90.8,90.8s-40.7,90.8-90.8,90.8-90.8-40.7-90.8-90.8,40.7-90.8,90.8-90.8Z"/>
    <circle class="cls-1" cx="391.7" cy="120.3" r="29.5"/>
  </g>
  <g id="xErPmO">
    <image id="xErPmO-2" data-name="xErPmO" width="225" height="225" transform="scale(2.3)" xlink:href="sns-instagram-1.png"/>
  </g>
</svg>